<?xml version="1.0" standalone="no"?>
<!DOCTYPE svg PUBLIC "-//W3C//DTD SVG 20010904//EN"
 "http://www.w3.org/TR/2001/REC-SVG-20010904/DTD/svg10.dtd">
<svg version="1.0" xmlns="http://www.w3.org/2000/svg"
 width="600.000000pt" height="600.000000pt" viewBox="0 0 600.000000 600.000000"
 preserveAspectRatio="xMidYMid meet">
<metadata>
Created by potrace 1.14, written by Peter Selinger 2001-2017
</metadata>
<g transform="translate(0.000000,600.000000) scale(0.100000,-0.100000)"
fill="#000000" stroke="none">
<path d="M1259 4656 c-2 -2 -33 -7 -68 -10 -260 -27 -525 -141 -672 -288 -186
-188 -277 -463 -233 -711 56 -323 271 -534 679 -667 99 -32 425 -120 500 -134
29 -6 295 -75 330 -86 166 -52 262 -96 341 -156 66 -50 89 -78 124 -149 88
-179 42 -390 -116 -534 -149 -136 -375 -202 -669 -196 -170 4 -184 6 -315 42
-241 67 -410 185 -503 353 -21 38 -74 174 -75 190 0 13 -15 89 -23 123 l-10
38 -57 -6 c-31 -3 -73 -8 -92 -10 -19 -2 -66 -7 -105 -11 -38 -4 -81 -8 -95
-9 -14 -2 -30 -3 -37 -4 -22 -2 -3 -162 33 -290 64 -220 192 -407 372 -544
172 -130 394 -210 687 -245 129 -15 464 -8 570 13 367 72 632 247 784 519 24
42 69 150 76 181 2 11 9 40 15 65 15 62 19 211 8 295 -39 295 -248 537 -583
676 -95 39 -307 100 -555 158 -571 135 -729 197 -814 319 -108 157 -86 370 55
512 62 63 178 130 249 145 8 2 38 9 65 15 83 20 94 21 265 24 151 4 208 -1
340 -27 54 -11 144 -48 200 -82 141 -86 245 -256 275 -453 l7 -43 66 5 c37 3
110 8 162 12 52 4 106 8 120 10 14 1 33 2 43 3 15 1 16 9 11 69 -29 333 -228
617 -534 759 -103 48 -259 96 -359 109 -25 3 -55 8 -66 11 -24 6 -390 14 -396
9z"/>
<path d="M3292 3000 l-1 -1610 205 0 204 0 0 68 c1 37 1 605 1 1262 l0 1195
25 -30 c13 -16 24 -35 24 -42 0 -6 4 -13 8 -15 5 -1 252 -367 549 -813 297
-445 663 -993 813 -1217 l273 -408 219 0 218 0 0 1610 0 1610 -205 0 -205 0 0
-1257 c0 -691 -1 -1257 -2 -1258 -2 -2 -253 371 -558 827 -305 457 -684 1022
-841 1257 l-286 426 -221 3 -220 2 0 -1610z"/>
</g>
</svg>
