<?xml version="1.0" encoding="utf-8"?>
<!-- Generator: Adobe Illustrator 22.1.0, SVG Export Plug-In . SVG Version: 6.00 Build 0)  -->
<svg version="1.1" id="Capa_1" xmlns="http://www.w3.org/2000/svg" xmlns:xlink="http://www.w3.org/1999/xlink" x="0px" y="0px"
	 viewBox="0 0 169.9 52.2" style="enable-background:new 0 0 169.9 52.2;" xml:space="preserve">
<style type="text/css">
	.st0{fill:#25378D;}
	.st1{fill:#FFFFFF;}
	.st2{fill:#3FC0F0;}
	.st3{fill:#F5A578;}
</style>
<g>
	<rect x="10.2" y="25.7" class="st0" width="0.3" height="0.6"/>
	<path class="st1" d="M139.8,28.3c-0.2-1.2-0.7-1.8-1.4-2.1c1.5-0.7,2.2-2.1,2.2-3.8c0-3.5-2.5-4-4.7-4h-8.4v15.4h1v-7h7.2h0h0.7
		c1.3,0,2.2,0.3,2.5,1.7c0.3,1.9,0.8,4.6,0.9,5.3h0.9C140.6,33.5,140.1,30.4,139.8,28.3 M128.5,19.2h7c1.3,0,4.1-0.2,4.1,3.2
		c0,2.7-2,3.4-3.9,3.4h-7.2V19.2z"/>
	<polygon class="st1" points="9.6,18.3 10.8,18.3 22.3,32.3 22.4,32.3 22.4,18.3 23.4,18.3 23.4,33.7 22.1,33.7 10.6,19.7 
		10.6,19.7 10.6,33.7 9.6,33.7 	"/>
	<polygon class="st1" points="31,18.3 43.2,18.3 43.2,19.2 32,19.2 32,25.3 42.7,25.3 42.7,26.2 32,26.2 32,32.9 43.3,32.9 
		43.3,33.7 31,33.7 	"/>
	<path class="st1" d="M72.1,18.3h8c2.2,0,4.7,0.8,4.7,4.3c0,2.6-1.5,4.4-4.8,4.4h-6.9v6.8h-1V18.3z M73.1,26.1H80
		c1.9,0,3.9-0.8,3.9-3.4c0-3.4-2.8-3.4-4.1-3.4h-6.6V26.1z"/>
	<polygon class="st1" points="91.1,18.3 92.1,18.3 92.1,32.9 102.2,32.9 102.2,33.7 91.1,33.7 	"/>
	<path class="st1" d="M112.4,18c6.2,0,8.2,5,8.2,8c0,3-1.9,8-8.2,8s-8.2-5-8.2-8C104.2,23,106.2,18,112.4,18 M112.4,33.2
		c4.6,0,7.2-3.5,7.2-7.2s-2.5-7.2-7.2-7.2c-4.6,0-7.2,3.5-7.2,7.2S107.8,33.2,112.4,33.2"/>
	<polygon class="st1" points="147.8,18.3 159.9,18.3 159.9,19.2 148.8,19.2 148.8,25.3 159.5,25.3 159.5,26.2 148.8,26.2 
		148.8,32.9 160.1,32.9 160.1,33.7 147.8,33.7 	"/>
	<polygon class="st2" points="49,18.3 64.9,33.7 66.4,33.7 50.4,18.3 	"/>
	<polygon class="st3" points="71.1,8.1 42.9,44 44.2,44 72.4,8.1 	"/>
</g>
</svg>
